<?xml version="1.0" encoding="utf-8"?>
<!-- Generator: Adobe Illustrator 21.1.0, SVG Export Plug-In . SVG Version: 6.00 Build 0)  -->
<svg version="1.1" xmlns="http://www.w3.org/2000/svg" xmlns:xlink="http://www.w3.org/1999/xlink" x="0px" y="0px"
	 viewBox="0 0 2448 2448" style="enable-background:new 0 0 2448 2448;" xml:space="preserve">
<style type="text/css">
	.st0{display:none;}
	.st1{display:inline;}
	.st2{fill:#FFFFFF;}
	.st3{fill:#2A305E;}
	.st4{fill:none;stroke:#2A305E;stroke-width:26.5262;stroke-miterlimit:10;}
	.st5{fill:#281A4D;}
	.st6{fill:#281A4D;stroke:#281A4D;stroke-width:26.5262;stroke-miterlimit:10;}
	.st7{fill:none;stroke:#FFFFFF;stroke-width:26.5262;stroke-miterlimit:10;}
</style>
<g id="Layer_1" class="st0">
	<g class="st1">
		<path class="st2" d="M2381,1226.7c0,637.5-516.8,1154.3-1154.3,1154.3C589.1,2381,72.3,1864.2,72.3,1226.7
			C72.3,589.1,589.1,72.3,1226.7,72.3C1864.2,72.3,2381,589.1,2381,1226.7z"/>
		<g>
			<path class="st3" d="M1901.9,456c225.4,47.2,91.5,431.4,91.5,431.4c-13.4,23.5-364.1,991.6-397.7,1072.1
				c-8.4,18.5-16.8,43.6-35.2,43.6c-20.1,0-28.5-13.4-36.9-36.9l-310.4-921.1h-3.4c-15.1,45.3-320.5,907.7-330.5,926.1
				c-8.4,16.8-18.5,31.9-33.5,31.9c-13.4,0-23.5-6.7-30.2-26.8L441.5,902.6c-16.8-47-40.3-60.4-72.1-60.4h-57
				c-8.4,0-10.1-6.7-10.1-13.4v-40.3c0-8.4,1.7-11.8,13.4-11.8c13.4,0,65.4,5,179.5,5c120.8,0,189.6-5,206.4-5
				c11.7,0,13.4,5,13.4,10.1v41.9c0,8.4-1.7,13.4-13.4,13.4H673c-43.6,0-58.7,23.5-48.7,60.4l270.2,849h3.4
				c6.7-28.5,256.7-745,263.4-815.4c1.7-13.4-10-41.9-25.2-62.1c-15.1-20.1-36.9-31.9-67.1-31.9H1027c-8.4,0-10.1-3.4-10.1-13.4
				v-40.3c0-6.7,1.7-11.8,11.7-11.8c15.1,0,73.8,5,204.7,5c140.9,0,204.7-5,221.5-5c10.1,0,11.7,5,11.7,11.8v41.9
				c0,6.7-1.7,11.7-11.7,11.7h-67.1c-41.9,0-57.1,36.9-47,67.1l261.7,842.3h3.4c18.4-53.7,330.1-790.6,261.7-857.4
				C1618.4,650.7,1676.5,408.8,1901.9,456z"/>
		</g>
		<path class="st4" d="M2253.3,1226.7c0,567-459.7,1026.7-1026.7,1026.7c-567,0-1026.6-459.7-1026.6-1026.7
			C200,659.7,659.7,200,1226.7,200C1793.7,200,2253.3,659.7,2253.3,1226.7z"/>
	</g>
</g>
<g id="Layer_1_copy">
	<rect class="st5" width="2461" height="2461"/>
</g>
<g id="Layer_4">
	<g>
		<path class="st2" d="M2381,1226.7c0,637.5-516.8,1154.3-1154.3,1154.3C589.1,2381,72.3,1864.2,72.3,1226.7
			C72.3,589.1,589.1,72.3,1226.7,72.3C1864.2,72.3,2381,589.1,2381,1226.7z"/>
		<path class="st6" d="M2253.3,1226.7c0,567-459.7,1026.7-1026.7,1026.7c-567,0-1026.6-459.7-1026.6-1026.7
			C200,659.7,659.7,200,1226.7,200C1793.7,200,2253.3,659.7,2253.3,1226.7z"/>
	</g>
	<g>
		<path class="st2" d="M1901.9,456c225.4,47.2,91.5,431.4,91.5,431.4c-13.4,23.5-364.1,991.6-397.7,1072.1
			c-8.4,18.5-16.8,43.6-35.2,43.6c-20.1,0-28.5-13.4-36.9-36.9l-310.4-921.1h-3.4c-15.1,45.3-320.5,907.7-330.5,926.1
			c-8.4,16.8-18.5,31.9-33.5,31.9c-13.4,0-23.5-6.7-30.2-26.8L441.5,902.6c-16.8-47-40.3-60.4-72.1-60.4h-57
			c-8.4,0-10.1-6.7-10.1-13.4v-40.3c0-8.4,1.7-11.8,13.4-11.8c13.4,0,65.4,5,179.5,5c120.8,0,189.6-5,206.4-5
			c11.7,0,13.4,5,13.4,10.1v41.9c0,8.4-1.7,13.4-13.4,13.4H673c-43.6,0-58.7,23.5-48.7,60.4l270.2,849h3.4
			c6.7-28.5,256.7-745,263.4-815.4c1.7-13.4-10-41.9-25.2-62.1c-15.1-20.1-36.9-31.9-67.1-31.9H1027c-8.4,0-10.1-3.4-10.1-13.4
			v-40.3c0-6.7,1.7-11.8,11.7-11.8c15.1,0,73.8,5,204.7,5c140.9,0,204.7-5,221.5-5c10.1,0,11.7,5,11.7,11.8v41.9
			c0,6.7-1.7,11.7-11.7,11.7h-67.1c-41.9,0-57.1,36.9-47,67.1l261.7,842.3h3.4c18.4-53.7,330.1-790.6,261.7-857.4
			C1618.4,650.7,1676.5,408.8,1901.9,456z"/>
	</g>
</g>
<g id="Layer_2" class="st0">
	<g class="st1">
		<path class="st2" d="M2381,1226.7c0,637.5-516.8,1154.3-1154.3,1154.3C589.1,2381,72.3,1864.2,72.3,1226.7
			C72.3,589.1,589.1,72.3,1226.7,72.3C1864.2,72.3,2381,589.1,2381,1226.7z"/>
		<g>
			<path class="st2" d="M1901.9,456c225.4,47.2,91.5,431.4,91.5,431.4c-13.4,23.5-364.1,991.6-397.7,1072.1
				c-8.4,18.5-16.8,43.6-35.2,43.6c-20.1,0-28.5-13.4-36.9-36.9l-310.4-921.1h-3.4c-15.1,45.3-320.5,907.7-330.5,926.1
				c-8.4,16.8-18.5,31.9-33.5,31.9c-13.4,0-23.5-6.7-30.2-26.8L441.5,902.6c-16.8-47-40.3-60.4-72.1-60.4h-57
				c-8.4,0-10.1-6.7-10.1-13.4v-40.3c0-8.4,1.7-11.8,13.4-11.8c13.4,0,65.4,5,179.5,5c120.8,0,189.6-5,206.4-5
				c11.7,0,13.4,5,13.4,10.1v41.9c0,8.4-1.7,13.4-13.4,13.4H673c-43.6,0-58.7,23.5-48.7,60.4l270.2,849h3.4
				c6.7-28.5,256.7-745,263.4-815.4c1.7-13.4-10-41.9-25.2-62.1c-15.1-20.1-36.9-31.9-67.1-31.9H1027c-8.4,0-10.1-3.4-10.1-13.4
				v-40.3c0-6.7,1.7-11.8,11.7-11.8c15.1,0,73.8,5,204.7,5c140.9,0,204.7-5,221.5-5c10.1,0,11.7,5,11.7,11.8v41.9
				c0,6.7-1.7,11.7-11.7,11.7h-67.1c-41.9,0-57.1,36.9-47,67.1l261.7,842.3h3.4c18.4-53.7,330.1-790.6,261.7-857.4
				C1618.4,650.7,1676.5,408.8,1901.9,456z"/>
		</g>
		<path class="st7" d="M2253.3,1226.7c0,567-459.7,1026.7-1026.7,1026.7c-567,0-1026.6-459.7-1026.6-1026.7
			C200,659.7,659.7,200,1226.7,200C1793.7,200,2253.3,659.7,2253.3,1226.7z"/>
	</g>
</g>
</svg>
