<?xml version="1.0" encoding="utf-8"?>
<!-- Generator: Adobe Illustrator 19.2.1, SVG Export Plug-In . SVG Version: 6.00 Build 0)  -->
<svg version="1.1" id="Capa_1" xmlns="http://www.w3.org/2000/svg" xmlns:xlink="http://www.w3.org/1999/xlink" x="0px" y="0px"
	 viewBox="0 0 24 24" style="enable-background:new 0 0 24 24;" xml:space="preserve">
<style type="text/css">
	.st0{fill:#291A4C;}
</style>
<g>
	<g>
		<path class="st0" d="M21.1,1.9H20V0h-1.9v1.9H5.8V0H3.9v1.9H2.8C1.2,1.9,0,3.1,0,4.7v16.5C0,22.7,1.2,24,2.8,24h18.3
			c1.5,0,2.8-1.2,2.8-2.8V4.7C24,3.1,22.7,1.9,21.1,1.9z M22.1,21.1c0,0.5-0.4,1-1,1H2.8c-0.5,0-1-0.4-1-1V8.8h20.2
			C22.1,8.8,22.1,21.1,22.1,21.1z M22.1,6.9H1.9V4.7c0-0.5,0.4-1,1-1h1.1v1.9h1.9V3.7h12.4v1.9H20V3.7h1.1c0.5,0,1,0.4,1,1
			C22.1,4.7,22.1,6.9,22.1,6.9z"/>
	</g>
</g>
<g>
	<g>
		<rect x="3.5" y="10.8" class="st0" width="1.9" height="1.9"/>
	</g>
</g>
<g>
	<g>
		<rect x="7.3" y="10.8" class="st0" width="1.9" height="1.9"/>
	</g>
</g>
<g>
	<g>
		<rect x="11" y="10.8" class="st0" width="1.9" height="1.9"/>
	</g>
</g>
<g>
	<g>
		<rect x="14.8" y="10.8" class="st0" width="1.9" height="1.9"/>
	</g>
</g>
<g>
	<g>
		<rect x="18.5" y="10.8" class="st0" width="1.9" height="1.9"/>
	</g>
</g>
<g>
	<g>
		<rect x="3.5" y="14.5" class="st0" width="1.9" height="1.9"/>
	</g>
</g>
<g>
	<g>
		<rect x="7.3" y="14.5" class="st0" width="1.9" height="1.9"/>
	</g>
</g>
<g>
	<g>
		<rect x="11" y="14.5" class="st0" width="1.9" height="1.9"/>
	</g>
</g>
<g>
	<g>
		<rect x="14.8" y="14.5" class="st0" width="1.9" height="1.9"/>
	</g>
</g>
<g>
	<g>
		<rect x="3.5" y="18.3" class="st0" width="1.9" height="1.9"/>
	</g>
</g>
<g>
	<g>
		<rect x="7.3" y="18.3" class="st0" width="1.9" height="1.9"/>
	</g>
</g>
<g>
	<g>
		<rect x="11" y="18.3" class="st0" width="1.9" height="1.9"/>
	</g>
</g>
<g>
	<g>
		<rect x="14.8" y="18.3" class="st0" width="1.9" height="1.9"/>
	</g>
</g>
<g>
	<g>
		<rect x="18.5" y="14.5" class="st0" width="1.9" height="1.9"/>
	</g>
</g>
</svg>
