<?xml version="1.0" encoding="utf-8"?>
<!-- Generator: Adobe Illustrator 23.0.3, SVG Export Plug-In . SVG Version: 6.00 Build 0)  -->
<svg version="1.1" id="Layer_1" xmlns="http://www.w3.org/2000/svg" xmlns:xlink="http://www.w3.org/1999/xlink" x="0px" y="0px"
	 viewBox="0 0 20 20" style="enable-background:new 0 0 20 20;" xml:space="preserve">
<style type="text/css">
	.st0{fill:#0C94E2;}
</style>
<g>
	<path class="st0" d="M18.7,6.8c-0.1,0.1-0.2,0.1-0.3,0.2c-2.7,2.7-5.4,5.4-8.1,8.1c-0.1,0.1-0.1,0.2-0.3,0.3
		c-0.1-0.1-0.1-0.3-0.2-0.3C7.1,12.4,4.4,9.7,1.7,7C1.6,6.9,1.5,6.8,1.4,6.8c0,0,0,0,0-0.1C2,6,2.7,5.4,3.4,4.6
		c2.3,2.3,4.5,4.5,6.7,6.7c2.2-2.2,4.4-4.4,6.7-6.7C17.4,5.4,18,6,18.7,6.8C18.7,6.7,18.7,6.8,18.7,6.8z"/>
</g>
</svg>
