<?xml version="1.0" encoding="utf-8"?>
<!-- Generator: Adobe Illustrator 23.0.3, SVG Export Plug-In . SVG Version: 6.00 Build 0)  -->
<svg version="1.1" id="_x31_6" xmlns="http://www.w3.org/2000/svg" xmlns:xlink="http://www.w3.org/1999/xlink" x="0px" y="0px" viewBox="0 0 103.14 104.01" style="enable-background:new 0 0 103.14 104.01;" xml:space="preserve">
    <style type="text/css">
        .st0 {
            fill: #FFF;
        }

        .st1 {
            fill-rule: evenodd;
            clip-rule: evenodd;
            fill: #FFF;
        }

    </style>
    <path class="st0" d="M51.52,2C65.2,2,77.57,7.54,86.53,16.5c8.97,8.97,14.5,21.33,14.5,35.01c0,13.68-5.54,26.05-14.5,35.01
	c-8.97,8.97-21.33,14.5-35.01,14.5c-13.68,0-26.05-5.54-35.01-14.5C7.54,77.56,2,65.2,2,51.52C2,37.84,7.54,25.47,16.5,16.5
	C25.47,7.54,37.84,2,51.52,2L51.52,2z M83.82,19.25c-8.28-8.25-19.69-13.38-32.3-13.38c-12.61,0-24.02,5.13-32.27,13.38
	C10.99,27.5,5.87,38.91,5.87,51.52c0,12.61,5.13,24.02,13.38,32.3c8.25,8.25,19.66,13.35,32.27,13.35c12.61,0,24.02-5.1,32.3-13.35
	c8.25-8.28,13.35-19.69,13.35-32.3C97.17,38.91,92.07,27.5,83.82,19.25L83.82,19.25z" />
    <path class="st1" d="M55.3,41.4v-4.06c0-1.95,1.29-2.41,2.22-2.41c0.9,0,5.68,0,5.68,0v-8.66h-7.81c-8.69,0-10.64,6.42-10.64,10.58
	v4.55H39.7v6.11v4h5.1c0,11.49,0,25.28,0,25.28h10.12c0,0,0-13.98,0-25.28h7.48l0.33-3.98l0.6-6.14H55.3z" />
</svg>
