<?xml version="1.0" encoding="utf-8"?>
<!-- Generator: Adobe Illustrator 16.0.4, SVG Export Plug-In . SVG Version: 6.00 Build 0)  -->
<!DOCTYPE svg PUBLIC "-//W3C//DTD SVG 1.1//EN" "http://www.w3.org/Graphics/SVG/1.1/DTD/svg11.dtd">
<svg version="1.1" id="Layer_1" xmlns="http://www.w3.org/2000/svg" xmlns:xlink="http://www.w3.org/1999/xlink" x="0px" y="0px"
	 width="494.382px" height="493.894px" viewBox="148.809 364.803 494.382 493.894"
	 enable-background="new 148.809 364.803 494.382 493.894" xml:space="preserve">
<g>
	<path fill="#ffffff" d="M148.809,611.506c0-136.449,109.753-246.203,247.191-246.697
		c136.449-0.989,247.191,109.258,247.191,246.697c0,136.943-110.248,247.19-247.191,247.19
		C259.056,858.696,148.809,748.449,148.809,611.506z M163.641,611.506c0,128.539,103.82,232.359,232.359,232.359
		s232.359-103.82,232.359-232.359c0-129.034-104.314-232.854-232.359-231.865C266.472,380.135,163.641,483.461,163.641,611.506z
		 M247.191,610.022c0-11.371,0-22.741,0.495-33.124c0.989-11.37,0.989-22.741,1.483-32.629c1.483-23.235,9.888-41.528,24.719-56.359
		c13.843-14.337,32.629-22.247,55.371-23.236c10.876,0,21.753-0.988,33.123-0.988h65.259c11.371,0,22.247,0.494,34.112,0.988
		c23.73,0.989,42.517,8.899,55.865,23.73c15.82,14.832,24.225,34.112,24.719,56.854c0.494,21.258,1.483,43.505,1.483,65.753
		c0,22.247-0.494,44.494-1.483,65.752c-0.988,23.236-8.898,42.022-24.719,56.854c-14.337,15.82-33.124,22.741-55.865,24.225
		c-10.877,0.494-22.247,0.494-33.124,0.988c-11.37,0.989-22.247,0-32.629,0h-32.629c-10.877,0-22.247-0.494-32.63-0.988
		c-22.741-1.483-41.528-8.404-56.854-24.225c-14.832-14.832-23.236-33.618-24.719-56.854c-0.494-10.876-1.483-21.752-1.483-33.123
		S247.191,621.394,247.191,610.022z M273.888,610.517c0,23.73,0.494,46.473,1.978,64.765c0.989,15.82,5.933,29.168,16.809,39.55
		c10.382,9.888,23.73,15.326,38.562,16.315c9.888,0.988,20.764,1.482,32.135,1.482c10.382,0,21.258,0,32.629,0s22.247,0,32.629,0
		c10.877,0,21.259-0.494,31.146-1.482c16.809-1.483,29.663-6.428,39.551-16.315c10.876-10.382,15.82-22.247,16.314-38.562
		c0.494-20.764,1.483-42.517,1.483-65.258c0-23.73-0.495-44.989-1.483-64.271c-1.483-16.314-5.933-29.168-16.314-39.056
		c-9.888-10.382-22.742-15.326-39.551-16.81c-9.888-0.494-20.27-0.494-31.641-0.494c-10.876,0-21.753-0.494-33.123-0.494
		c-11.371,0-22.248,0-33.618,0.494c-10.382,0.989-21.259,0-30.652,0.494c-16.314,1.978-29.168,6.428-38.562,15.82
		c-9.888,11.865-15.326,23.236-16.314,38.562C274.382,565.034,273.888,586.292,273.888,610.517z M320.359,612
		c0-21.259,8.404-39.551,22.742-53.888c15.325-15.326,32.135-22.741,52.898-22.741s37.573,7.415,52.898,22.741
		c14.338,14.337,22.742,32.629,22.742,53.888c0,20.27-8.404,38.562-22.742,52.898c-14.831,14.832-31.146,22.742-52.898,22.742
		s-39.057-7.91-52.898-22.742C328.764,649.573,320.359,632.764,320.359,612z M347.551,612c0,13.349,4.449,24.719,13.843,33.618
		c9.888,10.876,21.753,14.831,34.606,14.831s24.719-3.955,34.606-14.831c9.394-8.899,13.843-20.27,13.843-33.618
		c0-14.337-4.449-25.708-13.843-35.596c-9.888-9.393-21.753-14.337-34.606-14.337s-24.719,4.944-34.606,14.337
		C352,586.292,347.551,597.663,347.551,612z M454.831,535.371c0-12.359,5.933-17.304,17.304-17.304
		c12.359,0,17.798,4.944,17.798,17.304c0,11.37-5.438,17.303-17.798,17.303C460.764,552.674,454.831,546.741,454.831,535.371z"/>
</g>
</svg>
