<?xml version="1.0" encoding="utf-8"?>
<!-- Generator: Adobe Illustrator 23.0.3, SVG Export Plug-In . SVG Version: 6.00 Build 0)  -->
<svg version="1.1" id="_x31_6" xmlns="http://www.w3.org/2000/svg" xmlns:xlink="http://www.w3.org/1999/xlink" x="0px" y="0px" viewBox="0 0 102.49 102.49" style="enable-background:new 0 0 102.49 102.49;" xml:space="preserve">
    <style type="text/css">
        .st0 {
            fill: #FFF;
        }

        .st1 {
            fill-rule: evenodd;
            clip-rule: evenodd;
            fill: #FFF;
        }

    </style>
    <path class="st0" d="M51.52,1.66c13.68,0,26.05,5.54,35.01,14.5c8.97,8.97,14.5,21.33,14.5,35.01c0,13.68-5.54,26.05-14.5,35.01
	c-8.97,8.97-21.33,14.51-35.01,14.51c-13.68,0-26.05-5.54-35.01-14.51C7.54,77.23,2,64.86,2,51.18C2,37.5,7.54,25.13,16.51,16.17
	C25.47,7.2,37.84,1.66,51.52,1.66L51.52,1.66z M83.79,18.91C75.54,10.63,64.13,5.53,51.52,5.53c-12.61,0-24.02,5.1-32.27,13.38
	C10.97,27.16,5.87,38.57,5.87,51.18c0,12.61,5.1,24.02,13.38,32.27c8.25,8.28,19.66,13.38,32.27,13.38
	c12.61,0,24.02-5.1,32.27-13.38c8.28-8.25,13.38-19.66,13.38-32.27C97.17,38.57,92.07,27.16,83.79,18.91L83.79,18.91z" />
    <path class="st1" d="M29.17,51.65v21.88h10.42V49.86v-6.14H29.17V51.65z M73.62,52.88c-0.69-5.65-3.26-9.16-10.89-9.16
	c-4.47,0-7.49,1.65-8.75,4.03h-0.14v-4.03h-8.31v5.73v24.07h8.69V58.75c0-3.89,0.77-7.65,5.54-7.65c4.8,0,5.15,4.44,5.15,7.92v14.5
	h8.94V57.16C73.86,55.62,73.78,54.2,73.62,52.88L73.62,52.88z M34.38,28.83c-2.88,0-5.21,2.33-5.21,5.21s2.33,5.21,5.21,5.21
	c2.88,0,5.21-2.33,5.21-5.21S37.26,28.83,34.38,28.83L34.38,28.83z" />
</svg>
