<?xml version="1.0" encoding="utf-8"?>
<!-- Generator: Adobe Illustrator 24.0.2, SVG Export Plug-In . SVG Version: 6.00 Build 0)  -->
<svg version="1.1" id="Layer_1" xmlns="http://www.w3.org/2000/svg" xmlns:xlink="http://www.w3.org/1999/xlink" x="0px" y="0px"
	 viewBox="0 0 512.1 512.1" style="enable-background:new 0 0 512.1 512.1;" xml:space="preserve">
<style type="text/css">
	.st0{fill:#FFFFFF;}
</style>
<g>
	<g>
		<path class="st0" d="M256.1,0C114.4,0,0,114.3,0,256.1s114.3,256.1,256.1,256.1s256.1-114.3,256.1-256.1S397.7,0,256.1,0z
			 M256.1,477.9c-122.9,0-221.8-98.9-221.8-221.8S133.2,34.2,256.1,34.2s221.8,98.9,221.8,221.8S379,477.9,256.1,477.9z"/>
	</g>
</g>
<g>
	<g>
		<path class="st0" d="M216.9,143.5c-10.3,0-17.1,6.8-17.1,17.1v191.1c0,10.3,6.8,17.1,17.1,17.1c8.6,0,17.1-6.8,17.1-17.1V160.5
			C233.9,150.2,227,143.5,216.9,143.5z"/>
	</g>
</g>
<g>
	<g>
		<path class="st0" d="M295.4,143.5c-10.3,0-17.1,6.8-17.1,17.1v191.1c0,10.3,6.8,17.1,17.1,17.1s17.1-6.8,17.1-17.1V160.5
			C312.4,150.2,305.5,143.5,295.4,143.5z"/>
	</g>
</g>
</svg>
