<?xml version="1.0" encoding="utf-8"?>
<!-- Generator: Adobe Illustrator 23.0.6, SVG Export Plug-In . SVG Version: 6.00 Build 0)  -->
<svg version="1.1" id="Layer_1" xmlns="http://www.w3.org/2000/svg" xmlns:xlink="http://www.w3.org/1999/xlink" x="0px" y="0px"
	 viewBox="0 0 490 490" style="enable-background:new 0 0 490 490;" xml:space="preserve">
<style type="text/css">
	.st0{fill:#FFFFFF;}
</style>
<g>
	<g>
		<path class="st0" d="M343.2,236.4L208.1,144c-4.2-3.1-15.4-3.1-16.3,8.6v184.8c1,11.7,12.4,11.9,16.3,8.6l135.1-92.4
			C346.7,251.5,351.5,242.9,343.2,236.4L343.2,236.4z M212.7,317.7V172.3L318.8,245L212.7,317.7z"/>
		<path class="st0" d="M245,0C109.9,0,0,109.9,0,245s109.9,245,245,245s245-109.9,245-245S380.1,0,245,0z M245,469.1
			C121.4,469.1,20.9,368.6,20.9,245S121.4,20.9,245,20.9S469.1,121.4,469.1,245S368.6,469.1,245,469.1z"/>
	</g>
</g>
</svg>
