<?xml version="1.0" standalone="no"?>
<!DOCTYPE svg PUBLIC "-//W3C//DTD SVG 20010904//EN"
 "http://www.w3.org/TR/2001/REC-SVG-20010904/DTD/svg10.dtd">
<svg version="1.0" xmlns="http://www.w3.org/2000/svg"
 width="256.000000pt" height="256.000000pt" viewBox="0 0 256.000000 256.000000"
 preserveAspectRatio="xMidYMid meet">
<metadata>
Created by potrace 1.16, written by Peter Selinger 2001-2019
</metadata>
<g transform="translate(0.000000,256.000000) scale(0.100000,-0.100000)"
fill="#FFFFFF" stroke="none">
<path d="M1105 2554 c-77 -12 -245 -59 -316 -89 -341 -144 -605 -425 -724
-769 -88 -258 -88 -574 0 -832 80 -233 232 -444 428 -595 151 -117 293 -186
483 -236 102 -26 122 -28 304 -28 182 0 202 2 304 28 190 50 332 119 483 236
152 117 280 274 366 446 171 345 171 785 0 1130 -169 339 -471 583 -844 680
-90 24 -127 28 -279 30 -96 2 -188 1 -205 -1z m448 -198 c183 -47 348 -140
489 -275 182 -173 294 -384 333 -626 47 -289 -29 -603 -204 -836 -62 -82 -188
-203 -271 -259 -91 -62 -235 -127 -347 -157 -88 -24 -116 -26 -273 -26 -157 0
-185 2 -273 26 -186 50 -349 142 -489 276 -182 173 -294 384 -333 626 -47 289
29 603 204 836 62 82 188 203 271 259 127 86 302 155 456 180 106 16 327 5
437 -24z"/>
<path d="M692 1864 l3 -119 100 -6 c527 -34 948 -455 983 -982 l7 -102 118 -3
117 -3 0 84 c0 195 -75 451 -182 622 -235 372 -614 602 -1026 622 l-123 6 3
-119z"/>
<path d="M694 1497 c-2 -7 -3 -62 -2 -123 l3 -109 80 -6 c281 -22 501 -244
524 -528 l6 -76 120 0 120 0 -2 70 c-11 325 -239 628 -556 736 -122 41 -283
61 -293 36z"/>
<path d="M822 1019 c-48 -14 -107 -77 -120 -130 -35 -139 81 -257 223 -227 82
17 145 100 145 188 -1 39 -34 103 -69 133 -51 42 -113 55 -179 36z"/>
</g>
</svg>
