<?xml version="1.0" encoding="utf-8"?>
<!-- Generator: Adobe Illustrator 23.0.6, SVG Export Plug-In . SVG Version: 6.00 Build 0)  -->
<svg version="1.1" id="Layer_1" xmlns="http://www.w3.org/2000/svg" xmlns:xlink="http://www.w3.org/1999/xlink" x="0px" y="0px"
	 viewBox="0 0 490 490" style="enable-background:new 0 0 490 490;" xml:space="preserve">
<style type="text/css">
	.st0{enable-background:new    ;}
	.st1{fill:#2A305E;}
</style>
<g class="st0">
	<g>
		<path class="st1" d="M340.7,359.7l126.5,126.4c5.2,5.2,13.7,5.2,18.9,0c2.5-2.5,3.9-5.8,3.9-9.4c0-3.6-1.4-6.9-3.9-9.3
			L359.6,340.8l4.4-5.4c30-36.6,46.5-82.8,46.5-130.1C410.6,92.1,318.5,0,205.3,0C92.1,0,0,92.1,0,205.3
			c0,113.2,92.1,205.3,205.3,205.3c47.4,0,93.5-16.5,130-46.4L340.7,359.7z M205.3,383.6c-98.4,0-178.5-80-178.5-178.4
			c0-98.4,80.1-178.5,178.5-178.5s178.5,80.1,178.5,178.5C383.7,303.6,303.7,383.6,205.3,383.6z"/>
	</g>
</g>
</svg>
