<?xml version="1.0" encoding="utf-8"?>
<!-- Generator: Adobe Illustrator 23.0.3, SVG Export Plug-In . SVG Version: 6.00 Build 0)  -->
<svg version="1.1" id="_x31_6" xmlns="http://www.w3.org/2000/svg" xmlns:xlink="http://www.w3.org/1999/xlink" x="0px" y="0px" viewBox="0 0 102.59 102.59" style="enable-background:new 0 0 102.59 102.59;" xml:space="preserve">
    <style type="text/css">
        .st0 {
            fill: #FFF;
        }

        .st1 {
            fill-rule: evenodd;
            clip-rule: evenodd;
            fill: #FFF;
        }

    </style>
    <path class="st0" d="M51.52,2C65.2,2,77.57,7.57,86.53,16.5c8.96,8.97,14.5,21.36,14.5,35.04c0,13.65-5.54,26.05-14.5,35.01
	c-8.97,8.94-21.33,14.5-35.01,14.5S25.47,95.5,16.5,86.56C7.54,77.59,2,65.2,2,51.55C2,37.86,7.54,25.47,16.5,16.5
	C25.47,7.57,37.83,2,51.52,2L51.52,2z M83.79,19.25C75.54,10.99,64.13,5.89,51.52,5.89s-24.02,5.1-32.27,13.35
	C10.97,27.5,5.87,38.93,5.87,51.55c0,12.58,5.1,24.02,13.38,32.27C27.5,92.07,38.91,97.2,51.52,97.2s24.02-5.13,32.27-13.38
	c8.28-8.25,13.38-19.69,13.38-32.27C97.17,38.93,92.07,27.5,83.79,19.25L83.79,19.25z" />
    <path class="st1" d="M76.3,40.99c0,0-0.52-3.65-2.03-5.24c-1.92-2.08-4.08-2.11-5.04-2.25c-7.07-0.52-17.68-0.52-17.68-0.52h-0.06
	c0,0-10.58,0-17.66,0.52c-1.01,0.14-3.15,0.17-5.07,2.25c-1.51,1.59-2.03,5.24-2.03,5.24s-0.52,4.28-0.52,8.5v0.55v3.48
	c0,4.28,0.52,8.5,0.52,8.5s0.52,3.65,2.03,5.26c1.92,2.11,4.44,2.03,5.59,2.25c4.03,0.41,17.19,0.55,17.19,0.55
	s10.61-0.05,17.68-0.55c0.96-0.14,3.13-0.14,5.04-2.25c1.51-1.62,2.03-5.26,2.03-5.26s0.49-4.22,0.49-8.5v-3.26v-0.77
	C76.8,45.27,76.3,40.99,76.3,40.99L76.3,40.99z M59.96,50.97l-13.68,7.37V46.99v-3.45l6.2,3.37L59.96,50.97z" />
</svg>
